<?xml version="1.0" encoding="UTF-8" standalone="no"?>
<!-- Generator: Adobe Illustrator 26.0.1, SVG Export Plug-In . SVG Version: 6.00 Build 0)  -->

<svg
   version="1.1"
   id="Слой_1"
   x="0px"
   y="0px"
   viewBox="0 0 600 490"
   xml:space="preserve"
   sodipodi:docname="pt2 logo.svg"
   width="600"
   height="490"
   inkscape:version="1.2.1 (9c6d41e410, 2022-07-14)"
   xmlns:inkscape="http://www.inkscape.org/namespaces/inkscape"
   xmlns:sodipodi="http://sodipodi.sourceforge.net/DTD/sodipodi-0.dtd"
   xmlns="http://www.w3.org/2000/svg"
   xmlns:svg="http://www.w3.org/2000/svg"><defs
   id="defs282" /><sodipodi:namedview
   id="namedview280"
   pagecolor="#ffffff"
   bordercolor="#000000"
   borderopacity="0.25"
   inkscape:showpageshadow="2"
   inkscape:pageopacity="0.0"
   inkscape:pagecheckerboard="0"
   inkscape:deskcolor="#d1d1d1"
   showgrid="false"
   inkscape:zoom="2.054"
   inkscape:cx="519.96105"
   inkscape:cy="257.0594"
   inkscape:window-width="3840"
   inkscape:window-height="2050"
   inkscape:window-x="3828"
   inkscape:window-y="-12"
   inkscape:window-maximized="1"
   inkscape:current-layer="Слой_1" />
<style
   type="text/css"
   id="style143">
	.st0{fill:#29ABE2;}
	.st1{fill:#FFFF00;}
	.st2{fill:#FFFFFF;}
	.st3{fill:#F7931E;}
	.st4{fill:#FF0000;}
</style>

<g
   id="g277"
   transform="translate(-200,-254)">
	<g
   id="g201">
		<g
   id="g199">
			<path
   class="st0"
   d="M 261.87,462.24 H 217.5 c 0,4.11 1.44,7.6 4.31,10.48 2.88,2.88 6.37,4.31 10.48,4.31 h 29.58 v 14.79 H 217.5 c 0,4.11 1.44,7.6 4.31,10.48 2.88,2.88 6.37,4.32 10.48,4.32 h 29.58 c 4.11,0 7.6,-1.44 10.48,-4.32 2.88,-2.88 4.31,-6.37 4.31,-10.48 v -14.79 c 0,-4.11 -1.44,-7.6 -4.31,-10.48 -2.88,-2.87 -6.37,-4.31 -10.48,-4.31 z"
   id="path147" />
			<path
   class="st0"
   d="m 213.18,466.55 c -2.88,-2.88 -6.37,-4.32 -10.48,-4.32 v 59.27 c 0,4.12 1.44,7.62 4.32,10.5 2.88,2.88 6.37,4.32 10.48,4.32 v -44.5 -14.79 c -0.01,-4.11 -1.45,-7.6 -4.32,-10.48 z"
   id="path149" />
			<path
   class="st0"
   d="m 350.73,467.03 -18.88,20.43 10.14,11.01 29.58,-32.29 c -2.8,-2.63 -6.13,-3.95 -9.99,-3.95 -4.36,0.01 -7.98,1.61 -10.85,4.8 z"
   id="path151" />
			<path
   class="st0"
   d="m 296.63,462.24 c -3.86,0 -7.19,1.32 -9.99,3.94 l 37.59,41.12 v 29.02 c 4.11,0 7.6,-1.45 10.48,-4.34 2.88,-2.89 4.31,-6.41 4.31,-10.54 v -19.96 l -31.54,-34.44 c -2.95,-3.2 -6.57,-4.8 -10.85,-4.8 z"
   id="path153" />
			<g
   id="g157">
				<path
   class="st1"
   d="m 382.05,466.55 c -2.88,2.88 -4.32,6.37 -4.32,10.48 h 29.58 29.58 c 4.11,0 7.6,-1.44 10.48,-4.31 2.88,-2.88 4.31,-6.37 4.31,-10.48 h -59.16 c -4.11,0 -7.6,1.44 -10.47,4.31 z"
   id="path155" />
			</g>
			<g
   id="g161">
				<path
   class="st1"
   d="m 411.63,532 c 2.88,2.88 6.37,4.32 10.48,4.32 v -44.47 c 0,-4.12 -1.44,-7.62 -4.32,-10.5 -2.88,-2.88 -6.37,-4.32 -10.48,-4.32 v 44.47 c 0.01,4.11 1.44,7.61 4.32,10.5 z"
   id="path159" />
			</g>
			<g
   id="g165">
				<path
   class="st1"
   d="m 501,477.03 c 4.11,0 7.6,-1.44 10.48,-4.31 2.88,-2.88 4.32,-6.37 4.32,-10.48 h -44.38 c -4.11,0 -7.6,1.44 -10.48,4.32 -2.88,2.88 -4.32,6.37 -4.32,10.48 0,4.11 1.44,7.6 4.32,10.48 2.88,2.88 6.37,4.31 10.48,4.31 V 477.04 H 501 Z"
   id="path163" />
			</g>
			<g
   id="g169">
				<path
   class="st1"
   d="m 456.62,506.61 v 14.85 c 0,4.13 1.44,7.63 4.32,10.52 2.88,2.89 6.37,4.33 10.48,4.33 H 501 c 4.11,0 7.6,-1.44 10.48,-4.31 2.88,-2.88 4.32,-6.37 4.32,-10.48 H 471.42 V 506.61 H 501 c 4.11,0 7.6,-1.44 10.48,-4.32 2.88,-2.88 4.32,-6.37 4.32,-10.48 h -44.38 c -4.11,0 -7.6,1.44 -10.48,4.31 -2.88,2.89 -4.32,6.38 -4.32,10.49 z"
   id="path167" />
			</g>
			<g
   id="g173">
				<path
   class="st1"
   d="m 606.88,466.18 c -2.79,-2.63 -6.11,-3.95 -9.97,-3.95 -4.35,0 -8,1.61 -10.95,4.83 l -16.32,16.06 10,10.98 z"
   id="path171" />
			</g>
			<g
   id="g177">
				<path
   class="st1"
   d="m 535.73,462.24 c -3.87,0 -7.21,1.33 -10,3.98 l 60.13,65.47 c 2.97,3.09 6.63,4.63 11,4.63 3.87,0 7.21,-1.27 10.01,-3.82 l -60.28,-65.57 c -2.95,-3.13 -6.58,-4.69 -10.86,-4.69 z"
   id="path175" />
			</g>
			<g
   id="g181">
				<path
   class="st1"
   d="m 525.82,532.55 c 2.78,2.51 6.07,3.77 9.84,3.77 4.34,0 7.99,-1.56 10.94,-4.69 l 16.19,-17.58 -10.05,-10.92 z"
   id="path179" />
			</g>
			<g
   id="g185">
				<path
   class="st1"
   d="m 665.16,462.24 c -2.63,0 -5.1,0.66 -7.41,1.99 l 24.67,42.51 h -31.05 c 0,4.11 1.44,7.6 4.31,10.48 2.88,2.88 6.37,4.31 10.47,4.31 h 24.89 l 4.19,7.29 c 2.88,5 7.2,7.51 12.96,7.51 2.55,0 4.98,-0.7 7.28,-2.09 L 678,469.63 c -2.88,-4.93 -7.16,-7.39 -12.84,-7.39 z"
   id="path183" />
			</g>
			<g
   id="g189">
				<path
   class="st1"
   d="m 658.4,477.28 c -5.67,0 -9.95,2.46 -12.82,7.39 l -28.72,49.68 c 2.3,1.31 4.77,1.97 7.4,1.97 5.67,0 9.95,-2.46 12.82,-7.39 l 28.72,-49.68 c -2.3,-1.32 -4.77,-1.97 -7.4,-1.97 z"
   id="path187" />
			</g>
			<g
   id="g193">
				<path
   class="st1"
   d="m 782.03,477.03 c 4.11,0 7.6,-1.44 10.48,-4.31 2.88,-2.88 4.31,-6.37 4.31,-10.48 h -59.16 c -4.11,0 -7.6,1.44 -10.48,4.32 -2.88,2.88 -4.32,6.37 -4.32,10.48 0,4.11 1.44,7.6 4.32,10.48 2.88,2.88 6.37,4.31 10.48,4.31 v -14.79 h 44.37 z"
   id="path191" />
			</g>
			<g
   id="g197">
				<path
   class="st1"
   d="m 782.03,491.82 h -44.38 -14.79 c 0,4.11 1.44,7.6 4.32,10.48 2.88,2.88 6.37,4.32 10.48,4.32 h 44.38 v 14.91 l -59.17,-0.12 c 0,4.14 1.44,7.67 4.32,10.57 2.88,2.9 6.37,4.35 10.48,4.35 h 44.38 c 4.11,0 7.6,-1.44 10.48,-4.31 2.88,-2.88 4.31,-6.37 4.31,-10.48 v -14.91 c 0,-4.11 -1.44,-7.6 -4.31,-10.48 -2.9,-2.89 -6.39,-4.33 -10.5,-4.33 z"
   id="path195" />
			</g>
		</g>
	</g>
	<g
   id="g209">
		<g
   id="g207">
			<path
   class="st2"
   d="m 279.26,438.8 c 26.72,-94.41 113.6,-163.81 216.45,-163.81 102.85,0 189.73,69.4 216.45,163.81 h 8.29 C 693.52,339.95 602.97,267.05 495.71,267.05 388.45,267.05 297.9,339.94 270.97,438.8 Z"
   id="path203" />
			<path
   class="st2"
   d="m 712.15,561.11 c -26.72,94.41 -113.6,163.81 -216.45,163.81 -102.85,0 -189.73,-69.4 -216.45,-163.81 h -8.29 c 26.93,98.85 117.48,171.75 224.74,171.75 107.26,0 197.81,-72.9 224.74,-171.75 z"
   id="path205" />
		</g>
	</g>
	<g
   id="g217">
		<g
   id="g215">
			<path
   class="st3"
   d="m 690.12,545.4 c -0.02,1.99 -0.46,3.35 -1.74,4.64 -2.69,2.69 -6.87,4.71 -11.71,7.04 -6.47,3.12 -14.52,6.99 -22.51,14.22 -1.8,1.63 -3.35,3.06 -4.73,4.34 -8.77,8.12 -10.86,10.04 -34.53,21.61 -22.02,10.76 -26.16,25.36 -29.81,38.25 -1.29,4.55 -2.5,8.85 -4.44,12.86 -5.31,11.06 -1.26,25.66 1.99,37.39 1.82,6.58 3.71,13.38 3.06,16.39 -3.72,2.38 -24.97,-7.18 -35.19,-11.77 -5.29,-2.38 -10.29,-4.62 -14.71,-6.38 -11.28,-4.51 -11.76,-9.15 -12.61,-17.56 -0.41,-4.01 -0.87,-8.56 -2.6,-13.72 -2.38,-7.15 -6.42,-11.26 -11.1,-16.03 -6.57,-6.69 -14.74,-15.01 -23.34,-36.69 -14.49,-36.55 -40.11,-44.69 -60.06,-44.69 -0.93,0 -1.86,0.02 -2.76,0.05 -13.15,0.49 -14.88,10.39 -16.14,17.62 -0.9,5.17 -1.76,10.05 -5.59,13.03 -0.95,0.74 -1.65,1.23 -2.15,1.55 -1.92,-3.21 -5.56,-8.86 -18.16,-10.77 -9.77,-1.48 -18.37,-12.03 -25.7,-31.39 h -8.56 c 6.16,17.15 16.5,36.73 33.07,39.24 9.19,1.39 11.2,4.76 12.66,7.21 0.92,1.54 2.17,3.64 4.84,4.14 2.75,0.52 5.34,-0.97 8.87,-3.72 6.25,-4.86 7.52,-12.11 8.54,-17.93 1.43,-8.16 2.41,-10.82 8.62,-11.05 25.8,-0.93 44.34,12.38 55.15,39.63 9.19,23.16 18.36,32.5 25.05,39.32 4.31,4.39 7.43,7.57 9.23,12.98 1.44,4.33 1.84,8.24 2.23,12.01 0.94,9.17 1.82,17.83 17.57,24.12 4.26,1.71 9.19,3.92 14.4,6.26 17,7.63 29,12.71 36.77,12.71 1.97,0 3.68,-0.33 5.12,-1.03 2.13,-1.03 3.56,-2.8 4.13,-5.1 1.29,-5.17 -0.68,-12.3 -2.98,-20.56 -3.05,-11 -6.5,-23.46 -2.48,-31.83 2.22,-4.64 3.59,-9.47 4.92,-14.14 3.51,-12.38 6.82,-24.08 25.66,-33.28 24.73,-12.08 27.21,-14.37 36.44,-22.92 1.37,-1.26 2.89,-2.67 4.67,-4.28 7.13,-6.45 14.3,-9.9 20.62,-12.95 5.49,-2.64 10.23,-4.93 13.88,-8.57 3.2,-3.2 4.02,-6.7 4.05,-10.25 z"
   id="path211" />
			<path
   class="st3"
   d="m 685.2,399.17 c -1.92,-0.24 -47.35,-5.89 -77.07,-5.21 -6.08,0.13 -11.61,0.47 -16.95,0.79 -20.27,1.23 -33.67,2.05 -44.82,-10.48 -13.31,-14.97 -35.73,-19.66 -44.43,-20.97 l -1.3,-73.71 H 396.18 c -0.33,0.32 -0.67,0.63 -1.04,0.91 -0.71,0.55 -1.45,1.06 -2.21,1.54 l 0.57,152.44 h 7.94 l -0.55,-146.95 h 91.94 l 1.29,72.92 3.56,0.32 c 0.28,0.03 28.46,2.69 42.76,18.78 13.71,15.42 30.27,14.42 51.24,13.13 5.27,-0.32 10.72,-0.65 16.64,-0.78 24.52,-0.54 61.01,3.42 72.39,4.74 l -0.4,37.86 h 7.94 l 0.48,-44.88 z"
   id="path213" />
		</g>
	</g>
	<g
   id="g233">
		<g
   id="g231">
			<path
   class="st2"
   d="m 499.46,556.28 -9.3,16.08 c -0.93,1.59 -2.32,2.39 -4.15,2.39 -0.85,0 -1.65,-0.21 -2.39,-0.64 l 9.29,-16.08 c 0.93,-1.59 2.32,-2.39 4.15,-2.39 0.86,0 1.66,0.21 2.4,0.64 z m 16.07,17.79 c -0.75,0.45 -1.53,0.68 -2.36,0.68 -1.86,0 -3.26,-0.81 -4.19,-2.43 l -1.36,-2.36 h -8.05 c -1.33,0 -2.46,-0.46 -3.39,-1.4 -0.93,-0.93 -1.4,-2.06 -1.4,-3.39 h 10.05 l -7.98,-13.76 c 0.75,-0.43 1.55,-0.64 2.4,-0.64 1.84,0 3.22,0.8 4.15,2.39 z"
   id="path219" />
			<path
   class="st2"
   d="m 543.86,569.96 c 0,1.33 -0.47,2.46 -1.4,3.39 -0.93,0.93 -2.06,1.4 -3.39,1.4 h -14.36 c -1.33,0 -2.46,-0.46 -3.39,-1.4 -0.93,-0.93 -1.4,-2.06 -1.4,-3.39 v -19.19 c 1.33,0 2.46,0.47 3.39,1.4 0.93,0.93 1.4,2.06 1.4,3.4 v 14.39 z m 0,-4.8 c 0,1.33 -0.47,2.47 -1.4,3.4 -0.93,0.93 -2.06,1.4 -3.39,1.4 v -14.39 c 0,-1.33 0.47,-2.47 1.4,-3.4 0.93,-0.93 2.06,-1.4 3.39,-1.4 z"
   id="path221" />
			<path
   class="st2"
   d="m 572.98,550.77 c 0,1.33 -0.47,2.46 -1.4,3.39 -0.93,0.93 -2.06,1.4 -3.39,1.4 h -14.36 v 4.79 c -1.33,0 -2.46,-0.47 -3.39,-1.4 -0.93,-0.93 -1.4,-2.06 -1.4,-3.39 0,-1.33 0.47,-2.46 1.4,-3.39 0.93,-0.93 2.06,-1.4 3.39,-1.4 z m 0,19.19 c 0,1.33 -0.47,2.46 -1.4,3.39 -0.93,0.93 -2.06,1.4 -3.39,1.4 h -14.36 c -1.33,0 -2.46,-0.47 -3.39,-1.41 -0.93,-0.94 -1.4,-2.08 -1.4,-3.42 l 19.15,0.04 v -4.83 h -14.36 c -1.33,0 -2.46,-0.47 -3.39,-1.4 -0.93,-0.93 -1.4,-2.06 -1.4,-3.39 h 19.15 c 1.33,0 2.46,0.47 3.39,1.4 0.93,0.93 1.4,2.06 1.4,3.39 z"
   id="path223" />
			<path
   class="st2"
   d="m 602.1,550.77 c 0,1.33 -0.47,2.46 -1.4,3.39 -0.93,0.93 -2.06,1.4 -3.39,1.4 h -19.15 c 0,-1.33 0.47,-2.46 1.4,-3.39 0.93,-0.93 2.06,-1.4 3.39,-1.4 z m -9.58,23.97 c -1.33,0 -2.46,-0.47 -3.39,-1.4 -0.93,-0.93 -1.4,-2.07 -1.4,-3.4 v -14.39 c 1.33,0 2.46,0.47 3.39,1.4 0.93,0.93 1.4,2.06 1.4,3.4 z"
   id="path225" />
			<path
   class="st2"
   d="m 610.47,574.74 c -1.33,0 -2.46,-0.47 -3.39,-1.4 -0.93,-0.93 -1.4,-2.07 -1.4,-3.4 v -19.18 c 1.33,0 2.46,0.47 3.39,1.4 0.93,0.93 1.4,2.07 1.4,3.4 z"
   id="path227" />
			<path
   class="st2"
   d="m 620.45,569.95 c 0,1.33 -0.47,2.47 -1.4,3.4 -0.93,0.93 -2.06,1.4 -3.39,1.4 v -12.83 c 0,-1.33 0.47,-2.47 1.4,-3.4 0.93,-0.93 2.06,-1.4 3.39,-1.4 z m 14.36,-5.42 c -0.93,0.93 -2.06,1.4 -3.39,1.4 -1.33,0 -2.46,-0.47 -3.39,-1.4 l -12.37,-12.37 c 0.93,-0.93 2.06,-1.39 3.39,-1.39 1.33,0 2.46,0.47 3.39,1.4 z m 4.78,10.21 c -1.33,0 -2.46,-0.47 -3.39,-1.4 -0.93,-0.93 -1.4,-2.07 -1.4,-3.4 v -19.18 c 1.33,0 2.46,0.47 3.39,1.4 0.93,0.93 1.4,2.07 1.4,3.4 z"
   id="path229" />
		</g>
	</g>
	<g
   id="g249">
		<g
   id="g247">
			<path
   class="st0"
   d="m 544.05,592.05 c 0,1.33 -0.47,2.46 -1.4,3.39 -0.93,0.93 -2.06,1.4 -3.39,1.4 v -4.79 H 524.9 c -1.33,0 -2.46,-0.47 -3.39,-1.4 -0.93,-0.93 -1.4,-2.06 -1.4,-3.39 h 19.15 c 1.33,0 2.46,0.47 3.39,1.4 0.93,0.93 1.4,2.06 1.4,3.39 z m 0,19.19 H 524.9 c -1.33,0 -2.46,-0.46 -3.39,-1.4 -0.93,-0.93 -1.4,-2.06 -1.4,-3.39 v -4.83 c 0,-1.33 0.47,-2.46 1.4,-3.39 0.93,-0.93 2.06,-1.4 3.39,-1.4 h 14.36 c 0,1.33 -0.47,2.46 -1.4,3.39 -0.93,0.93 -2.06,1.4 -3.39,1.4 h -9.57 v 4.83 l 14.36,-0.04 c 1.33,0 2.46,0.47 3.39,1.41 0.93,0.94 1.4,2.08 1.4,3.42 z"
   id="path235" />
			<path
   class="st3"
   d="m 550.63,588.66 c 0.93,-0.93 2.06,-1.4 3.39,-1.4 h 14.36 c 1.33,0 2.46,0.47 3.39,1.4 0.93,0.93 1.4,2.06 1.4,3.39 v 14.36 c -1.33,0 -2.46,-0.47 -3.39,-1.4 -0.93,-0.93 -1.4,-2.06 -1.4,-3.39 v -9.57 h -19.15 c 0,-1.33 0.47,-2.46 1.4,-3.39 z m -1.4,3.39 c 1.33,0 2.46,0.47 3.39,1.4 0.93,0.93 1.4,2.06 1.4,3.39 v 9.57 h 19.15 c 0,1.33 -0.47,2.46 -1.4,3.39 -0.93,0.93 -2.06,1.4 -3.39,1.4 h -14.36 c -1.33,0 -2.46,-0.47 -3.39,-1.4 -0.93,-0.93 -1.4,-2.06 -1.4,-3.39 z"
   id="path237" />
			<g
   id="g243">
				<g
   id="g241">
					<path
   class="st4"
   d="m 543.51,622.69 c 0,1.33 -0.47,2.46 -1.4,3.39 -0.93,0.93 -2.06,1.4 -3.39,1.4 v -4.79 h -14.36 c -1.33,0 -2.46,-0.47 -3.39,-1.4 -0.93,-0.93 -1.4,-2.06 -1.4,-3.39 h 19.15 c 1.33,0 2.46,0.47 3.39,1.4 0.93,0.93 1.4,2.06 1.4,3.39 z m 0,19.18 h -19.15 c -1.33,0 -2.46,-0.46 -3.39,-1.4 -0.93,-0.93 -1.4,-2.06 -1.4,-3.39 v -4.83 c 0,-1.33 0.47,-2.46 1.4,-3.39 0.93,-0.93 2.06,-1.4 3.39,-1.4 h 14.36 c 0,1.33 -0.47,2.46 -1.4,3.39 -0.93,0.93 -2.06,1.4 -3.39,1.4 h -9.57 v 4.83 l 14.36,-0.04 c 1.33,0 2.46,0.47 3.39,1.41 0.93,0.94 1.4,2.08 1.4,3.42 z"
   id="path239" />
				</g>
			</g>
			<path
   class="st2"
   d="m 567.84,617.9 c 1.33,0 2.46,0.47 3.39,1.4 0.93,0.93 1.4,2.06 1.4,3.39 0,1.33 -0.47,2.46 -1.4,3.39 -0.93,0.93 -2.06,1.4 -3.39,1.4 v -4.79 h -14.36 c -1.33,0 -2.46,-0.47 -3.39,-1.4 -0.93,-0.93 -1.4,-2.06 -1.4,-3.39 z m 0,19.15 v -4.79 h -14.36 c -1.33,0 -2.46,-0.47 -3.39,-1.4 -0.93,-0.93 -1.4,-2.06 -1.4,-3.39 h 19.15 c 1.33,0 2.46,0.47 3.39,1.4 0.93,0.93 1.4,2.06 1.4,3.39 v 4.79 c 0,1.33 -0.47,2.46 -1.4,3.39 -0.93,0.93 -2.06,1.4 -3.39,1.4 h -14.36 c -1.33,0 -2.46,-0.47 -3.39,-1.4 -0.93,-0.93 -1.4,-2.06 -1.4,-3.39 z"
   id="path245" />
		</g>
	</g>
	<g
   id="g255">
		<path
   class="st0"
   d="m 263.2,439.53 c 26.86,-103.3 120.92,-179.79 232.51,-179.79 111.59,0 205.64,76.49 232.51,179.79 h 2.74 C 704.03,334.75 608.77,257.1 495.71,257.1 c -113.06,0 -208.32,77.66 -235.25,182.43 z"
   id="path251" />
		<path
   class="st4"
   d="m 728,561.17 c -27.14,102.9 -120.99,179 -232.29,179 -111.3,0 -205.16,-76.1 -232.3,-179 h -2.74 c 27.2,104.37 122.26,181.64 235.04,181.64 112.77,0 207.83,-77.27 235.04,-181.64 z"
   id="path253" />
	</g>
	<path
   class="st2"
   d="m 424.09,444.47 -15.34,-0.09 0.01,-1.99 13.35,0.08 v -91.11 h 3.61 V 326.2 h 2.13 v -18 c 0,-1.67 1.35,-3.02 3.02,-3.02 h 8.87 c 1.67,0 3.02,1.35 3.02,3.02 v 18 h 2.13 v 25.16 h 3.6 v 80.87 h 6.21 v -28.66 h 4.73 v -1.85 h 5.06 v -3.83 H 470 V 394 h 4.2 v -5.41 h 23.14 V 394 h 4.2 v 3.89 h 5.51 v 3.83 h 5.06 v 1.85 h 4.73 v 28.66 h 7.51 v -8.5 h 28.55 v -6.76 h 30.58 v -3.88 h 50.98 v 2.53 h 4.9 v 26.19 h 36.46 v 1.99 h -38.44 v -26.2 h -4.9 v -2.53 h -47.01 v 3.88 h -30.58 v 6.76 h -28.55 v 8.5 h -11.48 v -28.66 h -4.73 v -1.85 h -5.06 v -3.83 h -5.51 v -3.89 h -4.2 v -5.41 h -19.17 v 5.41 h -4.2 v 3.89 h -5.51 v 3.83 h -5.06 v 1.85 h -4.73 v 28.66 H 446.5 v -80.87 h -3.6 v -25.16 h -2.13 V 308.2 c 0,-0.57 -0.46,-1.04 -1.04,-1.04 h -8.87 c -0.57,0 -1.03,0.46 -1.03,1.04 v 19.98 h -2.13 v 25.16 h -3.61 z"
   id="path257" />
	<path
   class="st4"
   d="m 370.81,421.28 -17.28,-12.55 c -0.37,-0.27 -0.86,-0.27 -1.23,0 l -17.28,12.55 c -0.82,0.59 -1.92,-0.21 -1.61,-1.17 l 6.6,-20.32 c 0.14,-0.43 -0.01,-0.9 -0.38,-1.17 l -17.28,-12.55 c -0.82,-0.59 -0.4,-1.89 0.61,-1.89 h 21.36 c 0.45,0 0.85,-0.29 0.99,-0.72 l 6.6,-20.31 c 0.31,-0.96 1.67,-0.96 1.99,0 l 6.6,20.31 c 0.14,0.43 0.54,0.72 0.99,0.72 h 21.36 c 1.01,0 1.43,1.29 0.61,1.89 l -17.28,12.55 c -0.37,0.27 -0.52,0.74 -0.38,1.17 l 6.6,20.31 c 0.33,0.97 -0.77,1.77 -1.59,1.18 z m -17.28,-17.21 10.12,7.35 c 0.82,0.59 1.92,-0.21 1.61,-1.17 l -3.87,-11.9 c -0.14,-0.43 0.01,-0.9 0.38,-1.17 l 10.12,-7.36 c 0.82,-0.59 0.4,-1.89 -0.61,-1.89 h -12.51 c -0.45,0 -0.85,-0.29 -0.99,-0.72 l -3.87,-11.9 c -0.31,-0.96 -1.67,-0.96 -1.99,0 l -3.87,11.9 c -0.14,0.43 -0.54,0.72 -0.99,0.72 h -12.51 c -1.01,0 -1.43,1.29 -0.61,1.89 l 10.12,7.36 c 0.37,0.27 0.52,0.74 0.38,1.17 l -3.87,11.9 c -0.31,0.96 0.79,1.76 1.61,1.17 l 10.12,-7.35 c 0.37,-0.27 0.86,-0.27 1.23,0 z"
   id="path259" />
	<polygon
   class="st3"
   points="401.44,436.9 401.44,444.48 301.29,444.48 306.58,436.9 "
   id="polygon261" />
	<path
   class="st1"
   d="m 379.31,656.03 -15.58,-15.58 15.58,-15.58 c 1.38,-1.38 2.16,-3.25 2.16,-5.21 v -4.8 l -25.59,25.59 25.59,25.59 v -4.8 c 0,-1.96 -0.78,-3.83 -2.16,-5.21 z"
   id="path263" />
	<path
   class="st0"
   d="m 453.2,641.45 21.52,21.64 -21.52,21.64 c -1.89,1.9 -2.96,4.48 -2.96,7.16 v 6.7 l 35.31,-35.5 -35.31,-35.5 v 6.7 c 0,2.68 1.06,5.26 2.96,7.16 z"
   id="path265" />
	<path
   class="st3"
   d="m 402.06,680.62 v 0 l 25.2,-60.33 c 1.9,-4.55 6.35,-7.51 11.28,-7.51 v 0 l -25.2,60.33 c -1.9,4.55 -6.35,7.51 -11.28,7.51 z"
   id="path267" />
	<path
   class="st0"
   d="M 611.02,339.37 H 549.3 v -5.4 c 0,-1.25 1.01,-2.26 2.26,-2.26 h 59.47 v 7.66 z"
   id="path269" />
	<path
   class="st3"
   d="m 611.47,360.09 h -61.72 v -5.4 c 0,-1.25 1.01,-2.26 2.26,-2.26 h 59.47 v 7.66 z"
   id="path271" />
	<circle
   class="st1"
   cx="614.28003"
   cy="646.16998"
   r="5.7399998"
   id="circle273" />
	<circle
   class="st3"
   cx="637.26001"
   cy="646.16998"
   r="5.7399998"
   id="circle275" />
</g>
<ellipse
   style="fill:#000000;fill-opacity:0"
   id="path440"
   cx="307.05939"
   cy="244.29602"
   rx="322.05453"
   ry="263.14508" /></svg>
