<?xml version="1.0" encoding="UTF-8" standalone="no"?>
<!-- Generator: Adobe Illustrator 26.0.1, SVG Export Plug-In . SVG Version: 6.00 Build 0)  -->

<svg
   version="1.1"
   id="Слой_1"
   x="0px"
   y="0px"
   viewBox="0 0 600 76"
   xml:space="preserve"
   sodipodi:docname="pytexas-word.svg"
   width="600"
   height="76"
   inkscape:version="1.2.1 (9c6d41e410, 2022-07-14)"
   xmlns:inkscape="http://www.inkscape.org/namespaces/inkscape"
   xmlns:sodipodi="http://sodipodi.sourceforge.net/DTD/sodipodi-0.dtd"
   xmlns="http://www.w3.org/2000/svg"
   xmlns:svg="http://www.w3.org/2000/svg"><defs
   id="defs282" /><sodipodi:namedview
   id="namedview280"
   pagecolor="#ffffff"
   bordercolor="#000000"
   borderopacity="0.25"
   inkscape:showpageshadow="2"
   inkscape:pageopacity="0.0"
   inkscape:pagecheckerboard="0"
   inkscape:deskcolor="#d1d1d1"
   showgrid="false"
   inkscape:zoom="2.054"
   inkscape:cx="519.96105"
   inkscape:cy="257.0594"
   inkscape:window-width="3840"
   inkscape:window-height="2050"
   inkscape:window-x="3828"
   inkscape:window-y="-12"
   inkscape:window-maximized="1"
   inkscape:current-layer="g277" />
<style
   type="text/css"
   id="style143">
	.st0{fill:#29ABE2;}
	.st1{fill:#FFFF00;}
	.st2{fill:#FFFFFF;}
	.st3{fill:#F7931E;}
	.st4{fill:#FF0000;}
</style>

<g
   id="g277"
   transform="translate(-200,-254)">
	<g
   id="g201"
   transform="translate(0,-206)">
		<g
   id="g199">
			<path
   class="st0"
   d="M 261.87,462.24 H 217.5 c 0,4.11 1.44,7.6 4.31,10.48 2.88,2.88 6.37,4.31 10.48,4.31 h 29.58 v 14.79 H 217.5 c 0,4.11 1.44,7.6 4.31,10.48 2.88,2.88 6.37,4.32 10.48,4.32 h 29.58 c 4.11,0 7.6,-1.44 10.48,-4.32 2.88,-2.88 4.31,-6.37 4.31,-10.48 v -14.79 c 0,-4.11 -1.44,-7.6 -4.31,-10.48 -2.88,-2.87 -6.37,-4.31 -10.48,-4.31 z"
   id="path147" />
			<path
   class="st0"
   d="m 213.18,466.55 c -2.88,-2.88 -6.37,-4.32 -10.48,-4.32 v 59.27 c 0,4.12 1.44,7.62 4.32,10.5 2.88,2.88 6.37,4.32 10.48,4.32 v -44.5 -14.79 c -0.01,-4.11 -1.45,-7.6 -4.32,-10.48 z"
   id="path149" />
			<path
   class="st0"
   d="m 350.73,467.03 -18.88,20.43 10.14,11.01 29.58,-32.29 c -2.8,-2.63 -6.13,-3.95 -9.99,-3.95 -4.36,0.01 -7.98,1.61 -10.85,4.8 z"
   id="path151" />
			<path
   class="st0"
   d="m 296.63,462.24 c -3.86,0 -7.19,1.32 -9.99,3.94 l 37.59,41.12 v 29.02 c 4.11,0 7.6,-1.45 10.48,-4.34 2.88,-2.89 4.31,-6.41 4.31,-10.54 v -19.96 l -31.54,-34.44 c -2.95,-3.2 -6.57,-4.8 -10.85,-4.8 z"
   id="path153" />
			<g
   id="g157">
				<path
   class="st1"
   d="m 382.05,466.55 c -2.88,2.88 -4.32,6.37 -4.32,10.48 h 29.58 29.58 c 4.11,0 7.6,-1.44 10.48,-4.31 2.88,-2.88 4.31,-6.37 4.31,-10.48 h -59.16 c -4.11,0 -7.6,1.44 -10.47,4.31 z"
   id="path155" />
			</g>
			<g
   id="g161">
				<path
   class="st1"
   d="m 411.63,532 c 2.88,2.88 6.37,4.32 10.48,4.32 v -44.47 c 0,-4.12 -1.44,-7.62 -4.32,-10.5 -2.88,-2.88 -6.37,-4.32 -10.48,-4.32 v 44.47 c 0.01,4.11 1.44,7.61 4.32,10.5 z"
   id="path159" />
			</g>
			<g
   id="g165">
				<path
   class="st1"
   d="m 501,477.03 c 4.11,0 7.6,-1.44 10.48,-4.31 2.88,-2.88 4.32,-6.37 4.32,-10.48 h -44.38 c -4.11,0 -7.6,1.44 -10.48,4.32 -2.88,2.88 -4.32,6.37 -4.32,10.48 0,4.11 1.44,7.6 4.32,10.48 2.88,2.88 6.37,4.31 10.48,4.31 V 477.04 H 501 Z"
   id="path163" />
			</g>
			<g
   id="g169">
				<path
   class="st1"
   d="m 456.62,506.61 v 14.85 c 0,4.13 1.44,7.63 4.32,10.52 2.88,2.89 6.37,4.33 10.48,4.33 H 501 c 4.11,0 7.6,-1.44 10.48,-4.31 2.88,-2.88 4.32,-6.37 4.32,-10.48 H 471.42 V 506.61 H 501 c 4.11,0 7.6,-1.44 10.48,-4.32 2.88,-2.88 4.32,-6.37 4.32,-10.48 h -44.38 c -4.11,0 -7.6,1.44 -10.48,4.31 -2.88,2.89 -4.32,6.38 -4.32,10.49 z"
   id="path167" />
			</g>
			<g
   id="g173">
				<path
   class="st1"
   d="m 606.88,466.18 c -2.79,-2.63 -6.11,-3.95 -9.97,-3.95 -4.35,0 -8,1.61 -10.95,4.83 l -16.32,16.06 10,10.98 z"
   id="path171" />
			</g>
			<g
   id="g177">
				<path
   class="st1"
   d="m 535.73,462.24 c -3.87,0 -7.21,1.33 -10,3.98 l 60.13,65.47 c 2.97,3.09 6.63,4.63 11,4.63 3.87,0 7.21,-1.27 10.01,-3.82 l -60.28,-65.57 c -2.95,-3.13 -6.58,-4.69 -10.86,-4.69 z"
   id="path175" />
			</g>
			<g
   id="g181">
				<path
   class="st1"
   d="m 525.82,532.55 c 2.78,2.51 6.07,3.77 9.84,3.77 4.34,0 7.99,-1.56 10.94,-4.69 l 16.19,-17.58 -10.05,-10.92 z"
   id="path179" />
			</g>
			<g
   id="g185">
				<path
   class="st1"
   d="m 665.16,462.24 c -2.63,0 -5.1,0.66 -7.41,1.99 l 24.67,42.51 h -31.05 c 0,4.11 1.44,7.6 4.31,10.48 2.88,2.88 6.37,4.31 10.47,4.31 h 24.89 l 4.19,7.29 c 2.88,5 7.2,7.51 12.96,7.51 2.55,0 4.98,-0.7 7.28,-2.09 L 678,469.63 c -2.88,-4.93 -7.16,-7.39 -12.84,-7.39 z"
   id="path183" />
			</g>
			<g
   id="g189">
				<path
   class="st1"
   d="m 658.4,477.28 c -5.67,0 -9.95,2.46 -12.82,7.39 l -28.72,49.68 c 2.3,1.31 4.77,1.97 7.4,1.97 5.67,0 9.95,-2.46 12.82,-7.39 l 28.72,-49.68 c -2.3,-1.32 -4.77,-1.97 -7.4,-1.97 z"
   id="path187" />
			</g>
			<g
   id="g193">
				<path
   class="st1"
   d="m 782.03,477.03 c 4.11,0 7.6,-1.44 10.48,-4.31 2.88,-2.88 4.31,-6.37 4.31,-10.48 h -59.16 c -4.11,0 -7.6,1.44 -10.48,4.32 -2.88,2.88 -4.32,6.37 -4.32,10.48 0,4.11 1.44,7.6 4.32,10.48 2.88,2.88 6.37,4.31 10.48,4.31 v -14.79 h 44.37 z"
   id="path191" />
			</g>
			<g
   id="g197">
				<path
   class="st1"
   d="m 782.03,491.82 h -44.38 -14.79 c 0,4.11 1.44,7.6 4.32,10.48 2.88,2.88 6.37,4.32 10.48,4.32 h 44.38 v 14.91 l -59.17,-0.12 c 0,4.14 1.44,7.67 4.32,10.57 2.88,2.9 6.37,4.35 10.48,4.35 h 44.38 c 4.11,0 7.6,-1.44 10.48,-4.31 2.88,-2.88 4.31,-6.37 4.31,-10.48 v -14.91 c 0,-4.11 -1.44,-7.6 -4.31,-10.48 -2.9,-2.89 -6.39,-4.33 -10.5,-4.33 z"
   id="path195" />
			</g>
		</g>
	</g>
	
	<g
   id="g217">
		
	</g>
	
	
	
	
	
	
	
	
	
	
	
	
	
</g>
<ellipse
   style="fill:#000000;fill-opacity:0"
   id="path440"
   cx="307.05939"
   cy="244.29602"
   rx="322.05453"
   ry="263.14508" /></svg>
